Coordinates
version=1
nRows=7
nColumns=40
inDegrees=yes

Units are S.I. units (second, meters, Newtons, ...)
If the header above contains a line with 'inDegrees', this indicates whether rotational values are in degrees (yes) or radians (no).

endheader
time	pelvis_tilt	pelvis_list	pelvis_rotation	pelvis_tx	pelvis_ty	pelvis_tz	hip_flexion_r	hip_adduction_r	hip_rotation_r	knee_angle_r	knee_angle_r_beta	ankle_angle_r	subtalar_angle_r	mtp_angle_r	hip_flexion_l	hip_adduction_l	hip_rotation_l	knee_angle_l	knee_angle_l_beta	ankle_angle_l	subtalar_angle_l	mtp_angle_l	lumbar_extension	lumbar_bending	lumbar_rotation	arm_flex_r	arm_add_r	arm_rot_r	elbow_flex_r	pro_sup_r	wrist_flex_r	wrist_dev_r	arm_flex_l	arm_add_l	arm_rot_l	elbow_flex_l	pro_sup_l	wrist_flex_l	wrist_dev_l
      9.38000000000000078160	     32.38695331023053114450	     -3.47313059426370918104	   -178.23591039348139020149	      0.34855558697554528402	      0.89904481578088035754	     -0.56547004716720683515	     70.47499293730713532113	    -13.09985063884648859300	     -0.31995229828215576706	     42.06462305314281024948	      0.73416617088765179222	      5.90100795792070620394	      0.00000000000000000000	      0.00000000000000000000	     66.82775709901578409244	     -2.09701823602600256891	     -3.10793819744785304593	     40.72500702996744337270	      0.71078546057076885667	      5.95929792964972993019	      0.00000000000000000000	      0.00000000000000000000	    -13.03848857997871135694	      0.73394937558393991139	     -2.62709873960146422789	     35.28361397686804679097	    -14.27225060541828760563	     36.75064361764432874224	     18.62911953330124603667	     89.07429257775916653372	      0.00000000000000000000	      0.00000000000000000000	     38.19199279263625612657	    -13.05914931481453145068	     56.68023457041516621757	     20.01399935365691007405	     86.47691629962861270542	      0.00000000000000000000	      0.00000000000000000000
      9.38499999999999978684	     32.41624319778576079898	     -3.53569382914180563304	   -178.24721894458426163510	      0.34721040156791932452	      0.89999654302456488786	     -0.56571212725321429193	     70.29516606820958202206	    -13.12225963125376004825	     -0.41029037441328108926	     41.83911090438608226805	      0.73023024138859959908	      5.93028157375272702012	      0.00000000000000000000	      0.00000000000000000000	     66.57444020785821692243	     -2.09123915074072419529	     -3.28032726703247279332	     40.39271886814736944871	      0.70498593808160892049	      6.03970912078314547955	      0.00000000000000000000	      0.00000000000000000000	    -12.41534519375888301340	      0.62376404635715021474	     -2.63326821522889487071	     34.80815349683268777881	    -14.24950429363392778725	     36.83623275781793182659	     18.61090818199008012357	     89.06511465066606092478	      0.00000000000000000000	      0.00000000000000000000	     37.72862141396287682937	    -13.06533747042356452539	     56.69772749696396374475	     19.96866205247193803984	     86.49147939522757155828	      0.00000000000000000000	      0.00000000000000000000
      9.39000000000000056843	     32.44133302983626521154	     -3.59727096638997867473	   -178.24729464280753177263	      0.34592242023212682600	      0.90091773316189049936	     -0.56584206034538586660	     70.12233105848198988497	    -13.10099432342087943937	     -0.28337499460583887023	     41.62446108205467254493	      0.72648389525009560153	      5.96236852195671485077	      0.00000000000000000000	      0.00000000000000000000	     66.33313010246921237467	     -2.00126325271436922293	     -3.25760876706297652916	     40.07800525705685856792	      0.69949314936723849812	      6.07030017550292999573	      0.00000000000000000000	      0.00000000000000000000	    -11.79833637556786563039	      0.52186257557101634053	     -2.66120493811178215893	     34.30245608034762483385	    -14.25362357380265443396	     36.87274736863253110641	     18.66064819826069509645	     89.06172598799788886481	      0.00000000000000000000	      0.00000000000000000000	     37.27404482596342916167	    -13.06379048618529559178	     56.71498333740965591687	     19.93808359654424933183	     86.50861987794392859996	      0.00000000000000000000	      0.00000000000000000000
      9.39499999999999957367	     32.34260122188505448548	     -3.59207269386345728890	   -178.25682432277503153273	      0.34440664659813380322	      0.90189585423763929395	     -0.56596712339600385722	     69.88120539599925962193	    -13.06697251849446494987	     -0.22297723265150257155	     41.59543608791686608583	      0.72597731353701888679	      5.93125613282228236756	      0.00000000000000000000	      0.00000000000000000000	     66.07391017618553519242	     -1.97095568662592057763	     -3.22464123648425449176	     40.00761764593833191839	      0.69826465380060687149	      6.04528854976054841330	      0.00000000000000000000	      0.00000000000000000000	    -11.30592964000220135290	      0.50874765893928508564	     -2.69505706266274369654	     33.85537783781591514298	    -14.22472491414733042348	     36.90554386425034749664	     18.63576116038231944572	     89.06941329346965119385	      0.00000000000000000000	      0.00000000000000000000	     36.83724607340085555052	    -13.06054696036675544235	     56.77775118143322430342	     19.87621403668641306695	     86.52023194376205594835	      0.00000000000000000000	      0.00000000000000000000
      9.40000000000000035527	     32.23880539664074262873	     -3.55074519700695345747	   -178.23270390352428194092	      0.34286238272900559920	      0.90285141284487568925	     -0.56632290729681378227	     69.62253907105180417147	    -13.02059103502809023212	     -0.19372667687496661348	     41.57868984869654127579	      0.72568503652529758874	      5.90152949496030831966	      0.00000000000000000000	      0.00000000000000000000	     65.81115818205596212920	     -1.96276259455573476309	     -3.19995441945277114826	     39.93348606970166514429	      0.69697081371558389229	      6.03472993179434169519	      0.00000000000000000000	      0.00000000000000000000	    -10.81530945811405075574	      0.49684695268474265983	     -2.72960163120065590903	     33.38150704511564725863	    -14.18715229950409373316	     36.94526810530093285934	     18.58918837512392840949	     89.07910100645923989759	      0.00000000000000000000	      0.00000000000000000000	     36.42479438755049869769	    -13.07634581261679862507	     56.84126647740961146837	     19.80712052166879999504	     86.52982357171916305560	      0.00000000000000000000	      0.00000000000000000000
      9.40499999999999936051	     32.30093279294384700506	     -3.46756263348369886401	   -178.22838469207448497400	      0.34134571226641774455	      0.90387328732624083738	     -0.56643701334738882913	     69.39263778507249469385	    -12.90752614506691031693	     -0.13441772943494512127	     41.28006294551683197369	      0.72047301382977735340	      6.04220747493864429600	      0.00000000000000000000	      0.00000000000000000000	     65.49390827494063671566	     -1.93737002586149120731	     -3.10693868978852316687	     39.39265386072072061552	      0.68753151096803233333	      6.25990458516442682679	      0.00000000000000000000	      0.00000000000000000000	    -10.15146725058596643976	      0.56404825003480862922	     -2.69585274957698128873	     32.78108281576027849269	    -14.29071587250607855424	     36.85356065738252340225	     18.83518195647232573720	     89.06470250453322989870	      0.00000000000000000000	      0.00000000000000000000	     35.94635460747264232850	    -13.06208594243272536062	     56.92093080935755011751	     19.81617690857430957863	     86.55401309080797034312	      0.00000000000000000000	      0.00000000000000000000
      9.41000000000000014211	     32.16998295930880402693	     -3.43186487960751307469	   -178.21486045045136847875	      0.33971301280355958863	      0.90486458221107612943	     -0.56681935400036764783	     69.11845622701933677945	    -12.85470174110662888722	     -0.08788682795625955835	     41.29005144281588002286	      0.72064734599497226597	      6.00073824342481465521	      0.00000000000000000000	      0.00000000000000000000	     65.22610714220377303718	     -1.93467514611404700631	     -3.03675133769646077297	     39.38596576799155002391	      0.68741478172922965140	      6.22392500735035980597	      0.00000000000000000000	      0.00000000000000000000	     -9.68507993210272211115	      0.54066782276720792844	     -2.72537381159685798693	     32.32154727839171926007	    -14.25303795791467997844	     36.89707333178596115886	     18.76945659658263565461	     89.07866416511431850722	      0.00000000000000000000	      0.00000000000000000000	     35.54091328216332357215	    -13.08117825367411413140	     56.98818743447989021433	     19.74635422262548090089	     86.56333253469549049441	      0.00000000000000000000	      0.00000000000000000000
